<svg width="32" height="32" viewBox="0 0 32 32" fill="none" xmlns="http://www.w3.org/2000/svg">
<g clip-path="url(#clip0_1282_573)">
<path d="M0.969727 18.4665L9.08609 13.5933L17.2122 18.4665" stroke="#616161" stroke-width="2" stroke-linecap="round" stroke-linejoin="round"/>
<path d="M3.34546 21.7751V31.0034H14.8267V21.7751" stroke="#616161" stroke-width="2" stroke-linecap="round" stroke-linejoin="round"/>
<path d="M15.7867 11.4008V2.73062C15.7867 1.77391 16.5237 0.996582 17.4255 0.996582H29.3818C30.2836 0.996582 31.0206 1.77391 31.0206 2.73062V29.1598C31.0206 30.1165 30.2836 30.8938 29.3818 30.8938H18.5115" stroke="#616161" stroke-width="2" stroke-linecap="round" stroke-linejoin="round"/>
<path d="M21.8376 5.71036H20.3539C20.0058 5.71036 19.7236 6.00038 19.7236 6.35813V8.47087C19.7236 8.82862 20.0058 9.11864 20.3539 9.11864H21.8376C22.1857 9.11864 22.4679 8.82862 22.4679 8.47087V6.35813C22.4679 6.00038 22.1857 5.71036 21.8376 5.71036Z" stroke="#616161" stroke-miterlimit="10"/>
<path d="M26.5115 5.71036H25.0279C24.6798 5.71036 24.3976 6.00038 24.3976 6.35813V8.47087C24.3976 8.82862 24.6798 9.11864 25.0279 9.11864H26.5115C26.8596 9.11864 27.1418 8.82862 27.1418 8.47087V6.35813C27.1418 6.00038 26.8596 5.71036 26.5115 5.71036Z" stroke="#616161" stroke-miterlimit="10"/>
<path d="M21.8376 13.085H20.3539C20.0058 13.085 19.7236 13.375 19.7236 13.7328V15.8455C19.7236 16.2033 20.0058 16.4933 20.3539 16.4933H21.8376C22.1857 16.4933 22.4679 16.2033 22.4679 15.8455V13.7328C22.4679 13.375 22.1857 13.085 21.8376 13.085Z" stroke="#616161" stroke-miterlimit="10"/>
<path d="M26.5115 13.085H25.0279C24.6798 13.085 24.3976 13.375 24.3976 13.7328V15.8455C24.3976 16.2033 24.6798 16.4933 25.0279 16.4933H26.5115C26.8596 16.4933 27.1418 16.2033 27.1418 15.8455V13.7328C27.1418 13.375 26.8596 13.085 26.5115 13.085Z" stroke="#616161" stroke-miterlimit="10"/>
<path d="M10.1042 25.4127H8.27149C7.76272 25.4127 7.35028 25.8365 7.35028 26.3594V30.0268C7.35028 30.5497 7.76272 30.9735 8.27149 30.9735H10.1042C10.613 30.9735 11.0254 30.5497 11.0254 30.0268V26.3594C11.0254 25.8365 10.613 25.4127 10.1042 25.4127Z" stroke="#616161" stroke-miterlimit="10"/>
</g>
<defs>
<clipPath id="clip0_1282_573">
<rect width="32" height="32" fill="white"/>
</clipPath>
</defs>
</svg>
