<svg width="32" height="32" viewBox="0 0 32 32" fill="none" xmlns="http://www.w3.org/2000/svg">
<g clip-path="url(#clip0_1282_602)">
<path d="M8.7556 27V25.3405C7.6847 25.301 6.61381 24.9981 6 24.5898L6.45709 22.9831C7.12313 23.3782 8.06343 23.7338 9.10821 23.7338C10.153 23.7338 10.9104 23.207 10.9104 22.3772C10.9104 21.6134 10.3097 21.1129 9.05597 20.6519C7.26679 20.0066 6.11754 19.1769 6.11754 17.5833C6.11754 16.1082 7.13619 14.9755 8.84701 14.6726V13H10.2444V14.5936C11.3153 14.6331 12.0466 14.8833 12.5821 15.1599L12.125 16.7404C11.7201 16.556 10.9757 16.1609 9.81343 16.1609C8.65112 16.1609 8.19403 16.7799 8.19403 17.3594C8.19403 18.0574 8.80784 18.4525 10.2444 19.032C12.1511 19.7564 13 20.6783 13 22.1929C13 23.7074 11.9944 24.9323 10.1269 25.2352V27H8.72948H8.7556Z" fill="#616161"/>
<path d="M22.3409 19.1224V17.9006C21.5465 17.8715 20.752 17.6485 20.2967 17.3479L20.6358 16.1648C21.1299 16.4558 21.8274 16.7176 22.6025 16.7176C23.3775 16.7176 23.9394 16.3297 23.9394 15.7188C23.9394 15.1564 23.4938 14.7879 22.5637 14.4485C21.2364 13.9733 20.3839 13.3624 20.3839 12.1891C20.3839 11.103 21.1396 10.2691 22.4087 10.0461V8.81454H23.4453V9.98788C24.2398 10.017 24.7823 10.2012 25.1795 10.4048L24.8404 11.5685C24.5401 11.4327 23.9879 11.1418 23.1256 11.1418C22.2634 11.1418 21.9243 11.5976 21.9243 12.0242C21.9243 12.5382 22.3796 12.8291 23.4453 13.2558C24.8598 13.7891 25.4895 14.4679 25.4895 15.583C25.4895 16.6982 24.7436 17.6 23.3582 17.823V19.1224H22.3215H22.3409Z" fill="#616161"/>
<path d="M17.6 13.583V30.4H1.59998V13.583L9.70627 6.39999L17.6 13.583Z" stroke="#616161" stroke-width="2" stroke-linecap="round" stroke-linejoin="round"/>
<path d="M17.6 8.43426L23.1931 1.60001L30.4 8.79247V25.6H21.4358" stroke="#616161" stroke-width="2" stroke-linecap="round" stroke-linejoin="round"/>
</g>
<defs>
<clipPath id="clip0_1282_602">
<rect width="32" height="32" fill="white"/>
</clipPath>
</defs>
</svg>
