<svg width="32" height="32" viewBox="0 0 32 32" fill="none" xmlns="http://www.w3.org/2000/svg">
<g clip-path="url(#clip0_1282_587)">
<path d="M1.59998 9.6L16 1.6L30.4 9.6" stroke="#616161" stroke-width="2" stroke-linecap="round" stroke-linejoin="round"/>
<path d="M5.37213 13.6536V31.0344H26.6279V13.6536" stroke="#616161" stroke-width="2" stroke-linecap="round" stroke-linejoin="round"/>
<path d="M15.1434 25V23.1035C13.9218 23.0583 12.7002 22.7121 12 22.2455L12.5214 20.4092C13.2812 20.8608 14.3687 21.2672 15.5456 21.2672C16.7225 21.2672 17.6015 20.6651 17.6015 19.7168C17.6015 18.8438 16.9162 18.2719 15.486 17.7451C13.4451 17.0075 12.1341 16.0593 12.1341 14.238C12.1341 12.5522 13.2961 11.2578 15.2477 10.9116V9H16.8417V10.8213C18.0633 10.8664 18.8976 11.1524 19.5084 11.4685L18.987 13.2747C18.5251 13.064 17.676 12.6124 16.3501 12.6124C15.0242 12.6124 14.5177 13.3198 14.5177 13.9821C14.5177 14.7799 15.2179 15.2314 16.8566 15.8937C19.0317 16.7215 20 17.7752 20 19.5061C20 21.2371 18.8529 22.6369 16.7225 22.9831V25H15.1285H15.1434Z" fill="#616161"/>
</g>
<defs>
<clipPath id="clip0_1282_587">
<rect width="32" height="32" fill="white"/>
</clipPath>
</defs>
</svg>
