<svg width="22" height="22" viewBox="0 0 22 22" fill="none" xmlns="http://www.w3.org/2000/svg">
<path d="M20.625 11C20.625 8.44729 19.6109 5.99913 17.8059 4.1941C16.0009 2.38906 13.5527 1.375 11 1.375C8.44729 1.375 5.99913 2.38906 4.1941 4.1941C2.38906 5.99913 1.375 8.44729 1.375 11C1.375 13.5527 2.38906 16.0009 4.1941 17.8059C5.99913 19.6109 8.44729 20.625 11 20.625C13.5527 20.625 16.0009 19.6109 17.8059 17.8059C19.6109 16.0009 20.625 13.5527 20.625 11ZM0 11C0 8.08262 1.15893 5.28473 3.22183 3.22183C5.28473 1.15893 8.08262 0 11 0C13.9174 0 16.7153 1.15893 18.7782 3.22183C20.8411 5.28473 22 8.08262 22 11C22 13.9174 20.8411 16.7153 18.7782 18.7782C16.7153 20.8411 13.9174 22 11 22C8.08262 22 5.28473 20.8411 3.22183 18.7782C1.15893 16.7153 0 13.9174 0 11ZM7.24883 7.29609C7.52812 6.23906 8.48203 5.5 9.57773 5.5H12.0312C13.5566 5.5 14.7812 6.74609 14.7812 8.26289C14.7812 9.29414 14.2055 10.248 13.2816 10.7207L11.6875 11.5285V12.375C11.6875 12.7531 11.3781 13.0625 11 13.0625C10.6219 13.0625 10.3125 12.7531 10.3125 12.375V11.1074C10.3125 10.8496 10.4586 10.6133 10.6863 10.493L12.6543 9.4875C13.1141 9.25547 13.4062 8.77422 13.4062 8.2543C13.4062 7.48945 12.7875 6.86641 12.0312 6.86641H9.57773C9.10938 6.86641 8.69687 7.18437 8.58086 7.63555L8.57227 7.66562C8.47773 8.03086 8.09961 8.2543 7.73438 8.15547C7.36914 8.05664 7.1457 7.68281 7.24453 7.31758L7.25313 7.2875L7.24883 7.29609ZM9.96875 15.125C9.96875 14.8515 10.0774 14.5892 10.2708 14.3958C10.4642 14.2024 10.7265 14.0938 11 14.0938C11.2735 14.0938 11.5358 14.2024 11.7292 14.3958C11.9226 14.5892 12.0312 14.8515 12.0312 15.125C12.0312 15.3985 11.9226 15.6608 11.7292 15.8542C11.5358 16.0476 11.2735 16.1562 11 16.1562C10.7265 16.1562 10.4642 16.0476 10.2708 15.8542C10.0774 15.6608 9.96875 15.3985 9.96875 15.125Z" fill="#616161"/>
</svg>
