<svg width="20" height="22" viewBox="0 0 20 22" fill="none" xmlns="http://www.w3.org/2000/svg">
<path d="M10 9.625C10.5628 9.625 11.1201 9.5183 11.6401 9.311C12.16 9.1037 12.6325 8.79986 13.0305 8.41682C13.4284 8.03377 13.7441 7.57904 13.9595 7.07857C14.1749 6.5781 14.2857 6.0417 14.2857 5.5C14.2857 4.9583 14.1749 4.4219 13.9595 3.92143C13.7441 3.42096 13.4284 2.96623 13.0305 2.58318C12.6325 2.20014 12.16 1.8963 11.6401 1.689C11.1201 1.4817 10.5628 1.375 10 1.375C9.43719 1.375 8.8799 1.4817 8.35993 1.689C7.83996 1.8963 7.36751 2.20014 6.96954 2.58318C6.57158 2.96623 6.25589 3.42096 6.04052 3.92143C5.82514 4.4219 5.71429 4.9583 5.71429 5.5C5.71429 6.0417 5.82514 6.5781 6.04052 7.07857C6.25589 7.57904 6.57158 8.03377 6.96954 8.41682C7.36751 8.79986 7.83996 9.1037 8.35993 9.311C8.8799 9.5183 9.43719 9.625 10 9.625ZM15.7143 5.5C15.7143 6.95869 15.1122 8.35764 14.0406 9.38909C12.969 10.4205 11.5155 11 10 11C8.48448 11 7.03103 10.4205 5.95939 9.38909C4.88775 8.35764 4.28571 6.95869 4.28571 5.5C4.28571 4.04131 4.88775 2.64236 5.95939 1.61091C7.03103 0.579463 8.48448 0 10 0C11.5155 0 12.969 0.579463 14.0406 1.61091C15.1122 2.64236 15.7143 4.04131 15.7143 5.5ZM8.28572 17.9652L5.73214 14.6867C3.24107 15.4172 1.42857 17.6473 1.42857 20.2812V20.625H18.5714V20.2812C18.5714 17.6473 16.7589 15.4172 14.2679 14.691L11.7143 17.9695C10.8571 19.0695 9.14286 19.0695 8.28572 17.9695V17.9652ZM5.89732 13.2258C6.15625 13.1699 6.41964 13.2773 6.58036 13.4793L9.43304 17.1402C9.71875 17.5055 10.2902 17.5055 10.5759 17.1402L13.4286 13.4793C13.5893 13.2773 13.8527 13.1699 14.1116 13.2258C17.4732 13.9348 20 16.8223 20 20.2812V20.625C20 21.3855 19.3616 22 18.5714 22H1.42857C0.638393 22 0 21.3855 0 20.625V20.2812C0 16.8223 2.52679 13.9348 5.89732 13.2301V13.2258Z" fill="#616161"/>
</svg>
